<?xml version="1.0" encoding="utf-8"?>
<svg width="210mm" height="297mm" viewBox="0 0 207.774 227.997" version="1.1" id="svg8" xmlns="http://www.w3.org/2000/svg">
  <g id="layer1">
    <path style="fill:#000000;stroke-width:0.66333765" d="M 52.473416,217.8441 C 43.003617,212.45981 45.05947,199.97314 44.619031,190.66178 44.04961,169.76893 46.649459,147.58669 37.043481,128.25704 25.890546,104.62202 13.941587,79.289076 16.850302,52.329346 19.831729,31.805976 37.780416,14.709439 58.29479,14.093426 c 16.164984,-1.482428 32.483716,3.684283 45.91129,12.714832 10.752,-5.513314 21.88386,-11.713698 34.23861,-12.680512 16.32841,-1.776645 34.5732,2.590722 44.69242,16.786296 10.12862,12.114185 11.48205,29.027534 8.60702,44.104514 -3.34321,23.25434 -16.32586,43.239054 -23.82176,65.062444 -5.55505,22.47599 -1.23766,45.97697 -4.26726,68.73552 -1.85279,11.31183 -16.60599,12.55587 -22.66286,4.16386 -13.28428,-16.90769 -13.79106,-39.7686 -21.62109,-59.23039 -3.55536,-10.07258 -17.43132,-11.74279 -25.107218,-5.95919 -7.202168,7.56841 -7.841783,19.02606 -10.969387,28.62898 -4.13505,13.99864 -6.581616,30.69382 -18.967871,39.85204 -3.446279,2.27988 -7.971888,3.34538 -11.853268,1.57228 z m 7.291694,-11.54758 c 7.311994,-8.37531 9.360035,-20.08578 12.585902,-30.52509 4.036236,-13.34766 5.154331,-30.18064 17.812331,-38.39414 13.721147,-8.86513 34.793997,-2.59332 39.770257,13.78651 6.90274,17.68998 7.93382,37.82326 18.34647,53.98995 8.52318,6.64255 4.96582,-11.68369 5.91455,-16.5918 0.49073,-19.69863 -1.89988,-40.21811 5.81636,-58.8838 9.70573,-22.8156 22.99427,-45.563004 22.07419,-71.316411 0.13929,-17.715371 -15.4631,-33.774616 -32.95868,-33.260753 -12.65437,-0.703078 -25.76569,2.510725 -36.19458,9.955474 1.39627,5.401297 10.49888,7.334289 15.81611,9.701782 5.97572,1.997832 -9.26449,3.849111 -11.90121,3.271387 C 106.01298,45.816148 99.533445,35.114714 89.515215,30.897506 76.614593,24.512585 60.913034,22.882233 47.310067,27.809185 32.990458,33.771516 24.990105,50.58797 27.534606,65.901714 c 1.325477,23.585032 13.740434,44.083196 22.44177,65.329216 8.49727,23.59656 3.759248,49.12532 5.840275,73.57895 -0.20379,2.68171 2.457669,3.18914 3.948459,1.48664 z" id="path88"/>
    <path style="fill:#ffffff;fill-opacity:1;stroke-width:0.54672027" d="M 56.252799,206.34306 C 56.016894,205.96697 55.659762,193.85027 55.459244,179.41692 54.927321,141.12645 55.007951,141.50938 40.765096,109.71044 32.511,91.282056 29.344896,80.825896 27.918281,67.282916 27.038372,58.929948 27.389878,54.121768 29.300314,48.377271 c 2.494164,-7.499798 8.232918,-14.687655 14.926445,-18.695409 4.76873,-2.855261 11.582612,-4.321428 20.044625,-4.313007 8.230776,0.005 14.485237,1.265694 22.081359,4.439674 5.894739,2.463002 8.149258,3.912087 16.132227,10.367815 5.98794,4.842447 10.7743,7.491208 14.5626,8.059313 4.04697,0.606935 13.68062,-1.30779 13.23934,-2.631386 -0.0919,-0.274047 -3.07781,-1.686423 -6.63664,-3.13868 -6.2314,-2.543021 -10.1742,-5.223443 -10.1742,-6.916799 0,-1.572981 9.86941,-6.391059 17.26793,-8.429571 5.39643,-1.487122 20.47218,-2.127713 25.33161,-1.076266 8.67569,1.87687 18.01644,9.297945 22.04556,17.514347 3.15047,6.424331 3.85786,10.367712 3.53165,19.681877 -0.51773,14.787477 -3.9627,26.516957 -14.85578,50.571571 -12.13717,26.80219 -12.84558,30.5076 -12.86138,67.2466 -0.003,12.33497 -0.23372,21.58621 -0.56292,22.7716 -1.0776,3.87885 -3.78998,3.10147 -6.65637,-1.90643 -3.83333,-6.69658 -6.66266,-15.06705 -11.39845,-33.71324 -3.13874,-12.35752 -6.18413,-20.74689 -8.79148,-24.21766 -5.14866,-6.85159 -13.23539,-10.7437 -22.36636,-10.76441 -10.105044,-0.0208 -18.559154,5.28538 -23.395305,14.68833 -2.480526,4.82343 -3.76284,8.61932 -6.116811,18.10702 -3.750186,15.11463 -7.48215,26.96645 -10.243423,32.52951 -3.308965,6.66729 -6.77668,9.98123 -8.151742,7.79099 z" id="path4636"/>
  </g>
</svg>